<svg width="114" height="114" viewBox="0 0 114 114" fill="none" xmlns="http://www.w3.org/2000/svg">
<path d="M67.03 76.3823H46.8114C45.8208 76.3823 45.0177 77.0741 45.0177 77.9274C45.0177 78.7808 45.8208 79.4726 46.8114 79.4726H67.03C68.0206 79.4726 68.8237 78.7808 68.8237 77.9274C68.8237 77.0741 68.0206 76.3823 67.03 76.3823Z" fill="#80CAC1"/>
<path fill-rule="evenodd" clip-rule="evenodd" d="M48.8445 71.7183H65.1075L63.3138 75.6644H50.399L48.8445 71.7183Z" fill="#80CAC1"/>
<path fill-rule="evenodd" clip-rule="evenodd" d="M57.3232 61.6298L59.1648 60.1566C57.3969 59.0516 55.8499 58.0203 54.4503 56.9891L61.2273 58.6833L61.8166 57.652L52.5351 55.5895C51.7985 55.0002 51.2092 54.4845 50.6199 54.0426L64.3948 54.7055L64.8368 53.7479L49.4413 52.864C48.7783 52.201 48.2627 51.6117 47.8944 51.0224L65.9417 51.0961L66.2364 50.1385L47.3787 50.0648C47.3051 49.6965 47.2314 49.4018 47.2314 49.1072C45.1689 53.8952 53.9347 58.9043 57.3232 61.6298Z" fill="#41B0A2"/>
<path fill-rule="evenodd" clip-rule="evenodd" d="M57.5438 36.0691L55.7759 37.9107C56.4389 38.3526 57.1019 38.7946 57.6912 39.2366L54.229 38.8683L53.1977 39.8995L59.0171 40.2679C59.9747 41.0045 60.8586 41.7411 61.6689 42.5514L50.4722 42.846L49.8829 43.8773L62.6265 43.509C63.4368 44.3193 64.0998 45.1296 64.6154 45.9399L48.2624 46.5292L47.894 47.5604L65.1311 46.6765C65.794 47.7814 66.1623 48.739 66.1623 49.623C67.4146 42.9197 61.006 38.7946 57.5438 36.0691Z" fill="#41B0A2"/>
<path fill-rule="evenodd" clip-rule="evenodd" d="M58.2806 31.2808L60.1221 33.196C51.9456 40.3413 46.5682 44.1717 46.4209 51.538C42.7378 43.2141 55.0394 34.1536 58.2806 31.2808Z" fill="#F4FBFA"/>
<path fill-rule="evenodd" clip-rule="evenodd" d="M52.9769 35.3322L54.7448 33.5643C46.7893 27.9659 47.6732 24.5038 47.0839 22.8096C45.8316 26.5664 49.9567 33.2696 52.9769 35.3322Z" fill="#41B0A2"/>
<path fill-rule="evenodd" clip-rule="evenodd" d="M49.8833 78.4247C40.1599 70.0271 76.0335 62.4399 66.4574 44.3926C67.857 48.2967 67.415 52.1271 63.8055 57.1362C58.5018 63.2502 39.2759 73.0473 49.8833 78.4247Z" fill="#F4FBFA"/>
<path fill-rule="evenodd" clip-rule="evenodd" d="M26.7035 68.1542V33.019C26.7035 32.0654 27.3184 31.3319 28.1178 31.3319H49.2717C48.9642 30.7451 48.6568 30.085 48.4108 29.4248H27.9333C26.273 29.4248 24.9816 31.0385 24.9816 32.9457V68.3009C24.9816 70.208 26.273 71.7484 27.9333 71.7484H47.8573C48.1648 71.1616 48.5338 70.5015 49.0257 69.9146H28.1178C27.3184 69.9146 26.7035 69.1078 26.7035 68.1542Z" fill="#C0E5E0"/>
<path fill-rule="evenodd" clip-rule="evenodd" d="M57.4413 31.3319H85.6637C86.5189 31.3319 87.1768 32.0654 87.1768 33.019V68.1542C87.1768 69.1078 86.5189 69.9146 85.6637 69.9146H51.7179C51.06 70.5015 50.468 71.1616 50.0074 71.7484H85.9268C87.6373 71.7484 89.0188 70.208 89.0188 68.3009V32.9457C89.0188 31.0385 87.6373 29.4248 85.9268 29.4248H50.0074C50.468 30.0116 50.9942 30.6718 51.6521 31.3319H57.4413Z" fill="#80CAC1"/>
<path d="M11.7615 97.6306C11.6879 98.1312 11.5701 98.7053 11.1579 98.7936C10.9371 98.8378 10.8341 98.8378 10.7163 98.8378C10.5691 98.8378 10.4808 98.8672 10.4808 98.9408C10.4808 99.0733 10.5985 99.1028 10.7458 99.1028C11.2168 99.1028 11.9235 99.0586 12.2032 99.0586C12.4681 99.0586 13.1306 99.1028 13.7489 99.1028C13.9697 99.1028 14.1022 99.0733 14.1022 98.9408C14.1022 98.8672 13.9991 98.8378 13.8814 98.8378C13.7342 98.8378 13.5281 98.8231 13.2631 98.7642C13.0128 98.7053 12.8214 98.5728 12.8214 98.2931C12.8214 98.0575 12.8362 97.8662 12.8656 97.6012L13.6311 91.7421H13.69C14.2052 92.8462 15.0885 94.7011 15.221 95.0102C15.3977 95.4224 16.5606 97.6748 16.914 98.352C17.1495 98.7936 17.2967 99.088 17.4292 99.088C17.5617 99.088 17.6353 98.9555 17.9739 98.2636L21.1831 91.5802H21.242L22.1253 98.0575C22.1842 98.4697 22.14 98.6611 22.0517 98.6906C21.9486 98.7347 21.8897 98.7789 21.8897 98.8525C21.8897 98.9408 21.9781 98.985 22.3167 99.0144C22.9055 99.0586 24.937 99.1028 25.3051 99.1028C25.5112 99.1028 25.6878 99.0586 25.6878 98.9408C25.6878 98.8525 25.5848 98.8378 25.4523 98.8378C25.2609 98.8378 24.9665 98.8231 24.5396 98.6906C24.0979 98.5581 23.9507 98.1312 23.8182 97.2037L22.4786 88.106C22.4344 87.7968 22.3461 87.6496 22.2136 87.6496C22.0811 87.6496 22.0075 87.7674 21.8897 88.0029L17.8856 96.4088L13.8667 88.106C13.6753 87.7232 13.587 87.6496 13.4692 87.6496C13.3514 87.6496 13.2631 87.7821 13.2189 88.0324L11.7615 97.6306ZM29.905 92.2427C29.905 90.005 29.905 89.5928 29.9345 89.1217C29.9639 88.6065 30.0817 88.3562 30.4791 88.2826C30.6558 88.2532 30.8913 88.2385 31.0533 88.2385C31.2299 88.2385 31.3183 88.209 31.3183 88.106C31.3183 88.0029 31.2152 87.9735 31.0091 87.9735C30.435 87.9735 29.3603 88.0176 29.007 88.0176C28.6095 88.0176 27.6821 87.9735 26.9902 87.9735C26.7694 87.9735 26.6663 88.0029 26.6663 88.106C26.6663 88.209 26.7547 88.2385 26.9166 88.2385C27.108 88.2385 27.2846 88.2532 27.4024 88.2826C27.8882 88.3857 28.006 88.6212 28.0354 89.1217C28.0649 89.5928 28.0649 90.005 28.0649 92.2427V94.8336C28.0649 96.1879 28.0649 97.3509 27.9912 97.9692C27.9324 98.3961 27.8588 98.72 27.5643 98.7789C27.4318 98.8083 27.2552 98.8378 27.0344 98.8378C26.8577 98.8378 26.7988 98.8819 26.7988 98.9555C26.7988 99.0586 26.9019 99.1028 27.0932 99.1028C27.3877 99.1028 27.7704 99.0733 28.109 99.0733C28.4623 99.0586 28.7862 99.0586 28.9481 99.0586C29.5517 99.0586 30.0817 99.0733 30.7441 99.1028C31.4066 99.1175 32.1721 99.1469 33.232 99.1469C33.9975 99.1469 34.0711 99.0733 34.1595 98.7494C34.2772 98.3225 34.3803 97.2184 34.3803 97.0565C34.3803 96.8798 34.3656 96.8062 34.2625 96.8062C34.1447 96.8062 34.1153 96.8946 34.1006 97.0271C34.0711 97.3068 33.8945 97.719 33.7178 97.9103C33.3498 98.3078 32.7757 98.3225 31.9954 98.3225C30.8472 98.3225 30.4644 98.2195 30.2142 97.9987C29.905 97.7337 29.905 96.7179 29.905 94.8336V92.2427ZM38.3546 99.3089C39.1348 99.3089 39.9592 99.1764 40.6952 98.7053C41.7552 98.0134 42.079 96.9976 42.079 96.1438C42.079 94.7453 41.446 93.7295 39.6647 92.3899L39.2525 92.0807C38.0307 91.1533 37.6921 90.638 37.6921 89.9609C37.6921 89.0776 38.3546 88.4446 39.4439 88.4446C40.4008 88.4446 40.8277 88.8862 41.0485 89.1659C41.3577 89.5487 41.4313 90.005 41.4313 90.1375C41.4313 90.3142 41.4755 90.4025 41.5785 90.4025C41.6963 90.4025 41.7404 90.2847 41.7404 89.9609C41.7404 88.8126 41.7993 88.3857 41.7993 88.1943C41.7993 88.0913 41.7257 88.0471 41.5932 88.0176C41.2105 87.9146 40.5922 87.7674 39.6353 87.7674C37.589 87.7674 36.2347 88.9304 36.2347 90.5497C36.2347 91.7421 36.7941 92.7726 38.4134 94.0386L39.0906 94.5686C40.3125 95.5255 40.5333 96.2027 40.5333 96.924C40.5333 97.7042 39.8856 98.6022 38.5606 98.6022C37.6479 98.6022 36.7794 98.2048 36.4555 97.1154C36.3819 96.8651 36.323 96.556 36.323 96.3646C36.323 96.2468 36.3083 96.1143 36.1758 96.1143C36.058 96.1143 36.0139 96.2763 35.9991 96.4971C35.9844 96.7326 35.9255 97.6159 35.9255 98.4256C35.9255 98.7494 35.9697 98.8231 36.2052 98.9261C36.8383 99.2058 37.5007 99.3089 38.3546 99.3089Z" fill="#BD4D17"/>
<path d="M61.0042 94.8338C61.0042 96.1882 61.0042 97.3512 60.9306 97.9695C60.8865 98.3964 60.7981 98.7202 60.5037 98.7791C60.3712 98.8086 60.1946 98.838 59.9737 98.838C59.7971 98.838 59.7382 98.8822 59.7382 98.9558C59.7382 99.0588 59.8413 99.103 60.0326 99.103C60.6215 99.103 61.5489 99.0588 61.8875 99.0588C62.2997 99.0588 63.2271 99.103 64.1987 99.103C64.3607 99.103 64.4785 99.0588 64.4785 98.9558C64.4785 98.8822 64.4048 98.838 64.2429 98.838C64.0221 98.838 63.6982 98.8086 63.4921 98.7791C63.0505 98.7202 62.9622 98.3964 62.918 97.9842C62.8444 97.3512 62.8444 96.1882 62.8444 94.8338V88.7981L64.6993 88.8423C66.0095 88.8717 66.4069 89.2839 66.4364 89.6667L66.4511 89.8286C66.4658 90.0494 66.4953 90.123 66.613 90.123C66.7014 90.123 66.7308 90.0347 66.7455 89.8875C66.7455 89.5047 66.7897 88.489 66.7897 88.1798C66.7897 87.959 66.775 87.8707 66.6719 87.8707C66.613 87.8707 66.4953 87.9001 66.2744 87.9443C66.0536 87.9737 65.7298 88.0179 65.2587 88.0179H59.4291C58.9433 88.0179 58.3838 87.9885 57.9569 87.9443C57.5889 87.9148 57.4417 87.7676 57.3239 87.7676C57.2356 87.7676 57.1914 87.856 57.1473 88.0473C57.1178 88.1651 56.8381 89.5047 56.8381 89.7403C56.8381 89.9022 56.8676 89.9758 56.9706 89.9758C57.0589 89.9758 57.1031 89.9169 57.1325 89.7992C57.162 89.6814 57.2356 89.5047 57.3828 89.2839C57.6036 88.9601 57.9569 88.8864 58.8108 88.857L61.0042 88.7981V94.8338ZM69.5346 94.8338C69.5346 96.1882 69.5346 97.3512 69.461 97.9695C69.4021 98.3964 69.3285 98.7202 69.0341 98.7791C68.9016 98.8086 68.725 98.838 68.5041 98.838C68.3275 98.838 68.2686 98.8822 68.2686 98.9558C68.2686 99.0588 68.3716 99.103 68.563 99.103C68.8574 99.103 69.2402 99.0736 69.5788 99.0736C69.9321 99.0588 70.256 99.0588 70.4179 99.0588C70.8595 99.0588 71.3159 99.0736 71.9489 99.103C72.5819 99.1177 73.3916 99.1472 74.4957 99.1472C75.0551 99.1472 75.1876 99.1472 75.2906 98.7644C75.3642 98.47 75.482 97.4689 75.482 97.1304C75.482 96.9831 75.482 96.8654 75.3642 96.8654C75.2612 96.8654 75.2318 96.9243 75.2023 97.0862C75.0993 97.6898 74.9226 97.9989 74.5399 98.1756C74.1571 98.3522 73.5388 98.3522 73.1561 98.3522C71.6545 98.3522 71.4189 98.1314 71.3895 97.1156C71.3748 96.6887 71.3895 95.3344 71.3895 94.8338V93.6709C71.3895 93.5825 71.4042 93.5236 71.4778 93.5236C71.8311 93.5236 73.2885 93.5384 73.5683 93.5678C74.1129 93.6267 74.319 93.8475 74.3926 94.1419C74.4368 94.3333 74.4368 94.5247 74.4515 94.6719C74.4515 94.7455 74.481 94.8044 74.584 94.8044C74.7165 94.8044 74.7165 94.6425 74.7165 94.5247C74.7165 94.4216 74.7607 93.8328 74.7754 93.5384C74.8343 92.7876 74.8932 92.552 74.8932 92.4637C74.8932 92.3754 74.849 92.3459 74.7901 92.3459C74.7165 92.3459 74.6576 92.4195 74.5546 92.5373C74.4221 92.6845 74.2013 92.7287 73.848 92.7581C73.5094 92.7876 71.8164 92.7876 71.4926 92.7876C71.4042 92.7876 71.3895 92.7287 71.3895 92.6256V88.9012C71.3895 88.7981 71.4189 88.754 71.4926 88.754C71.787 88.754 73.3327 88.7834 73.583 88.8128C74.319 88.9012 74.4662 89.0778 74.5693 89.3428C74.6429 89.5195 74.6576 89.7697 74.6576 89.8728C74.6576 90.0053 74.6871 90.0789 74.7901 90.0789C74.8932 90.0789 74.9226 89.9905 74.9373 89.9169C74.9668 89.7403 74.9962 89.0925 75.0109 88.9453C75.0551 88.2682 75.1287 88.0915 75.1287 87.9885C75.1287 87.9148 75.114 87.856 75.0404 87.856C74.9668 87.856 74.8784 87.9001 74.8048 87.9148C74.6871 87.9443 74.4515 87.9737 74.1718 88.0032C73.8921 88.0179 70.9626 88.0179 70.4915 88.0179C70.2854 88.0179 69.9468 88.0032 69.5641 87.9885C69.196 87.9885 68.7691 87.9737 68.3716 87.9737C68.1508 87.9737 68.0478 88.0032 68.0478 88.1062C68.0478 88.2093 68.1361 88.2387 68.298 88.2387C68.5041 88.2387 68.7544 88.2534 68.8722 88.2829C69.358 88.3859 69.4757 88.6215 69.5052 89.122C69.5346 89.5931 69.5346 90.0053 69.5346 92.2429V94.8338ZM84.1431 99.3091C85.0852 99.3091 86.204 99.2061 86.7929 98.9705C87.0432 98.8675 87.102 98.7939 87.1756 98.5436C87.3229 98.0431 87.4995 96.7623 87.4995 96.5857C87.4995 96.4679 87.4701 96.3648 87.367 96.3648C87.2492 96.3648 87.2198 96.4237 87.1756 96.6593C87.1168 96.9243 86.9254 97.3512 86.6751 97.6309C86.0863 98.3081 85.2913 98.4553 83.9811 98.4553C82.0085 98.4553 79.3439 96.7182 79.3439 93.2145C79.3439 91.7865 79.6236 90.388 80.6983 89.4017C81.346 88.8128 82.1851 88.489 83.4659 88.489C84.8202 88.489 85.9685 88.8864 86.4543 89.4017C86.8223 89.7844 87.0137 90.2997 87.0284 90.756C87.0284 90.9621 87.0579 91.0799 87.1756 91.0799C87.3081 91.0799 87.3376 90.9621 87.3523 90.7413C87.3817 90.4469 87.367 89.6372 87.3965 89.1514C87.4259 88.6362 87.4701 88.4595 87.4701 88.3418C87.4701 88.2534 87.4112 88.1798 87.2492 88.1651C86.8076 88.1209 86.3365 87.9885 85.7771 87.9148C85.0999 87.8265 84.5553 87.7676 83.6425 87.7676C81.4491 87.7676 80.0506 88.3565 78.9906 89.3281C77.5774 90.6236 77.2682 92.3607 77.2682 93.3617C77.2682 94.7897 77.651 96.4385 79.0937 97.7045C80.4333 98.8675 82.1262 99.3091 84.1431 99.3091ZM92.6123 92.6551C92.5681 92.6551 92.5239 92.6256 92.5239 92.552V92.2429C92.5239 90.0053 92.5239 89.5931 92.5534 89.122C92.5828 88.6067 92.7006 88.3565 93.0981 88.2829C93.2747 88.2534 93.4072 88.2387 93.525 88.2387C93.7016 88.2387 93.79 88.2093 93.79 88.1062C93.79 88.0032 93.6869 87.9737 93.4808 87.9737C92.9067 87.9737 91.9793 88.0179 91.6259 88.0179C91.2285 88.0179 90.301 87.9737 89.5061 87.9737C89.3 87.9737 89.1969 88.0032 89.1969 88.1062C89.1969 88.2093 89.2853 88.2387 89.4472 88.2387C89.6533 88.2387 89.9036 88.2534 90.0213 88.2829C90.5071 88.3859 90.6249 88.6215 90.6543 89.122C90.6838 89.5931 90.6838 90.0053 90.6838 92.2429V94.8338C90.6838 96.1882 90.6838 97.3512 90.6102 97.9695C90.5513 98.3964 90.4777 98.7202 90.1833 98.7791C90.0508 98.8086 89.8741 98.838 89.6533 98.838C89.4766 98.838 89.4178 98.8822 89.4178 98.9558C89.4178 99.0588 89.5208 99.103 89.7122 99.103C90.301 99.103 91.2285 99.0588 91.5671 99.0588C91.9793 99.0588 92.9067 99.103 93.8636 99.103C94.0402 99.103 94.158 99.0588 94.158 98.9558C94.158 98.8822 94.0844 98.838 93.9225 98.838C93.7016 98.838 93.3778 98.8086 93.1717 98.7791C92.73 98.7202 92.6417 98.3964 92.5975 97.9842C92.5239 97.3512 92.5239 96.1882 92.5239 94.8338V93.5384C92.5239 93.4648 92.5681 93.45 92.6123 93.45H98.2358C98.28 93.45 98.3241 93.4795 98.3241 93.5384V94.8338C98.3241 96.1882 98.3241 97.3512 98.2505 97.9695C98.1916 98.3964 98.118 98.7202 97.8236 98.7791C97.6911 98.8086 97.5144 98.838 97.2936 98.838C97.117 98.838 97.0581 98.8822 97.0581 98.9558C97.0581 99.0588 97.1611 99.103 97.3672 99.103C97.9414 99.103 98.8688 99.0588 99.2074 99.0588C99.6196 99.0588 100.547 99.103 101.504 99.103C101.681 99.103 101.798 99.0588 101.798 98.9558C101.798 98.8822 101.725 98.838 101.563 98.838C101.342 98.838 101.018 98.8086 100.812 98.7791C100.37 98.7202 100.282 98.3964 100.238 97.9842C100.164 97.3512 100.164 96.1882 100.164 94.8338V92.2429C100.164 90.0053 100.164 89.5931 100.194 89.122C100.223 88.6067 100.341 88.3565 100.738 88.2829C100.915 88.2534 101.048 88.2387 101.165 88.2387C101.342 88.2387 101.43 88.2093 101.43 88.1062C101.43 88.0032 101.327 87.9737 101.121 87.9737C100.547 87.9737 99.6196 88.0179 99.2663 88.0179C98.8688 88.0179 97.9414 87.9737 97.1464 87.9737C96.9403 87.9737 96.8373 88.0032 96.8373 88.1062C96.8373 88.2093 96.9256 88.2387 97.0875 88.2387C97.2936 88.2387 97.5439 88.2534 97.6617 88.2829C98.1475 88.3859 98.2652 88.6215 98.2947 89.122C98.3241 89.5931 98.3241 90.0053 98.3241 92.2429V92.552C98.3241 92.6256 98.28 92.6551 98.2358 92.6551H92.6123Z" fill="#80CAC1"/>
<path d="M47.3865 92.6499C47.5591 92.6499 47.7057 92.7117 47.8265 92.8354C47.9501 92.9561 48.0119 93.1028 48.0119 93.2753C48.0119 93.4478 47.9501 93.5959 47.8265 93.7195C47.7057 93.8403 47.5591 93.9006 47.3865 93.9006C47.214 93.9006 47.066 93.8403 46.9423 93.7195C46.8216 93.5959 46.7612 93.4478 46.7612 93.2753C46.7612 93.1028 46.8216 92.9561 46.9423 92.8354C47.066 92.7117 47.214 92.6499 47.3865 92.6499ZM46.8302 99.0588V95.3239H46.2393V94.4398H47.9213V99.0588H46.8302ZM52.1891 99.0588V96.3892C52.1891 95.9953 52.1129 95.7077 51.9605 95.5266C51.811 95.3455 51.5651 95.2549 51.223 95.2549C51.0648 95.2549 50.8952 95.2995 50.7141 95.3886C50.5358 95.4777 50.3964 95.5884 50.2957 95.7207V99.0588H49.2175V94.4398H49.9938L50.1922 94.871C50.4855 94.526 50.9182 94.3535 51.4904 94.3535C52.0396 94.3535 52.4723 94.5188 52.7886 94.8495C53.1077 95.1773 53.2673 95.6359 53.2673 96.2253V99.0588H52.1891Z" fill="#F4FBFA"/>
</svg>
